<?xml version="1.0" encoding="utf-8"?>
<!-- Generator: Adobe Illustrator 24.3.0, SVG Export Plug-In . SVG Version: 6.00 Build 0)  -->
<svg version="1.1" id="Layer_1" xmlns="http://www.w3.org/2000/svg" xmlns:xlink="http://www.w3.org/1999/xlink" x="0px" y="0px"
	 viewBox="0 0 95 28" style="enable-background:new 0 0 95 28;" xml:space="preserve">
<style type="text/css">
	.st0{clip-path:url(#SVGID_2_);}
	.st1{clip-path:url(#SVGID_4_);}
	.st2{fill-rule:evenodd;clip-rule:evenodd;fill:#335CFF;}
	.st3{fill:#FFFFFF;}
</style>
<g>
	<defs>
		<rect id="SVGID_1_" width="95" height="28"/>
	</defs>
	<clipPath id="SVGID_2_">
		<use xlink:href="#SVGID_1_"  style="overflow:visible;"/>
	</clipPath>
	<g class="st0">
		<g>
			<defs>
				<rect id="SVGID_3_" width="28" height="28"/>
			</defs>
			<clipPath id="SVGID_4_">
				<use xlink:href="#SVGID_3_"  style="overflow:visible;"/>
			</clipPath>
			<g class="st1">
				<path class="st2" d="M27.4,2.2c-1-2-4.4-1.3-7.4-0.6C7.3,6.3,2.8,15.8,1.2,21.5c-0.1,0.1-0.1,0.3-0.1,0.5
					c-0.6,2.4-0.7,4-0.7,4.1c0,0.6,0.4,1.1,1,1.1c0,0,0,0,0,0c0.6,0,1-0.4,1-1c0-0.2,0.1-1.3,0.5-3.1c3.5-0.1,7-1.5,10.5-3.9
					c0.5-0.3,0.6-1,0.3-1.5c-0.1-0.1-0.1-0.2-0.2-0.2l-1.6-1.3l5.3-0.5c0.2,0,0.4-0.1,0.6-0.2c1.9-1.6,3.6-3.3,5.3-5.1
					C26.9,6.3,28.3,3.8,27.4,2.2z M21.2,25.1h-9c-0.6,0-1.1,0.5-1.1,1.1c0,0.6,0.5,1,1.1,1h9c0.6,0,1.1-0.5,1.1-1
					C22.2,25.6,21.8,25.1,21.2,25.1L21.2,25.1z"/>
			</g>
		</g>
		<path class="st3" d="M43.3,23.6c-0.6,0-1-0.1-1.2-0.4c-0.2-0.3-0.4-0.7-0.4-1.4c0-0.5,0-1,0.1-1.7c0.1-0.7,0.3-1.7,0.5-3.1
			l0.4-2.2c0.2-1.3,0.4-2.7,0.6-4.1c0.2-1.2,0.2-2.1,0.2-2.8c0-0.7-0.3-1-0.8-1c-0.4,0-0.9,0.2-1.4,0.6c-0.6,0.4-1.2,1-1.8,1.9
			c-0.2,0.3-0.5,0.4-0.7,0.4c-0.2,0-0.4-0.1-0.6-0.3C38.1,9.3,38,9.1,38,8.8c0-0.3,0-0.5,0.1-0.7c0.1-0.2,0.3-0.5,0.5-0.9
			c0.8-1,1.6-1.8,2.5-2.4C42,4.3,43,4,44,4c0.8,0,1.5,0.3,1.9,0.8c0.4,0.5,0.6,1.3,0.6,2.3c0,0.9-0.1,2.2-0.4,3.9
			c0.8-2.3,1.7-4,2.9-5.2C50.3,4.6,51.7,4,53.3,4c1.3,0,2.2,0.4,2.8,1.1c0.6,0.7,1,1.7,1,2.9c0,0.7-0.1,1.5-0.3,2.5L55.4,17
			c-0.2,0.8-0.2,1.4-0.2,2c0,0.6,0.1,1.1,0.4,1.4c0.3,0.3,0.7,0.5,1.3,0.5c0.5,0,1-0.2,1.5-0.5c0.5-0.3,1.1-0.9,1.7-1.7
			c0.2-0.2,0.4-0.3,0.6-0.3c0.2,0,0.4,0.1,0.5,0.3c0.1,0.2,0.2,0.4,0.2,0.8c0,0.6-0.1,1.1-0.4,1.4c-0.8,1-1.6,1.7-2.4,2.1
			c-0.7,0.4-1.6,0.7-2.5,0.7c-1.3,0-2.3-0.4-3.1-1.1c-0.7-0.8-1.1-1.8-1.1-3.1c0-0.5,0-1.1,0.1-1.7c0.1-0.6,0.2-1.4,0.4-2.3l0.9-4.2
			l0.2-0.7c0.1-0.4,0.1-0.7,0.2-1c0-0.3,0.1-0.6,0.1-0.9c0-0.5-0.1-0.9-0.4-1.2s-0.7-0.4-1.2-0.4c-0.9,0-1.8,0.5-2.8,1.5
			c-0.9,1-1.8,2.6-2.6,4.8c-0.8,2.2-1.4,5-1.8,8.4c-0.1,0.8-0.3,1.3-0.5,1.6C44.3,23.5,43.9,23.6,43.3,23.6z M70.7,16.4
			c0.2,0,0.4,0.1,0.5,0.3c0.1,0.2,0.2,0.5,0.2,0.8c0,0.7-0.2,1.2-0.7,1.3c-0.9,0.3-1.9,0.5-3,0.6c-0.3,1.3-0.9,2.3-1.7,3.1
			c-0.9,0.8-1.8,1.1-2.9,1.1c-0.9,0-1.7-0.2-2.4-0.7c-0.6-0.4-1.2-1.1-1.5-1.8c-0.3-0.8-0.5-1.6-0.5-2.4c0-1.2,0.2-2.2,0.7-3.1
			c0.4-0.9,1.1-1.6,1.8-2.1c0.8-0.5,1.7-0.8,2.6-0.8c1.2,0,2.1,0.4,2.8,1.2c0.7,0.8,1.1,1.8,1.3,3c0.7,0,1.6-0.2,2.6-0.5
			C70.5,16.5,70.6,16.4,70.7,16.4z M63.2,21.2c0.5,0,0.9-0.2,1.3-0.6c0.4-0.4,0.6-1,0.7-1.7c-0.5-0.3-0.9-0.8-1.1-1.3
			c-0.2-0.5-0.4-1.1-0.4-1.7c0-0.2,0-0.5,0.1-0.7h-0.1c-0.6,0-1.1,0.3-1.5,0.9c-0.4,0.6-0.6,1.4-0.6,2.5c0,0.8,0.2,1.5,0.5,1.9
			C62.3,21,62.7,21.2,63.2,21.2z M79.7,18.4c0.2,0,0.4,0.1,0.5,0.3c0.1,0.2,0.2,0.4,0.2,0.8c0,0.6-0.1,1.1-0.4,1.4
			c-0.6,0.8-1.3,1.4-2.2,2c-0.8,0.5-1.7,0.8-2.7,0.8c-3.1,0-4.7-2.2-4.7-6.6c0-0.7,0-1.4,0.1-2h-0.9c-0.5,0-0.8-0.1-0.9-0.3
			c-0.2-0.2-0.2-0.4-0.2-0.8c0-0.9,0.3-1.3,1-1.3h1.3c0.3-1.7,0.7-3.2,1.2-4.6c0.5-1.4,1.2-2.5,1.9-3.3c0.8-0.8,1.6-1.2,2.5-1.2
			c0.6,0,1.2,0.3,1.5,0.9s0.6,1.3,0.6,2.1c0,2.4-1,4.4-3,6.2H78c0.2,0,0.4,0.1,0.5,0.2c0.1,0.1,0.2,0.3,0.2,0.6
			c0,1.1-0.9,1.6-2.6,1.6h-2.8c0,0.8,0,1.4,0,1.8c0,1.6,0.2,2.7,0.6,3.4c0.4,0.6,1,1,1.8,1c0.7,0,1.2-0.2,1.7-0.6
			c0.5-0.4,1.1-1,1.8-1.8C79.3,18.5,79.5,18.4,79.7,18.4z M75.7,5.6c-0.2,0-0.5,0.3-0.8,0.9c-0.3,0.6-0.5,1.4-0.8,2.4
			c-0.3,1.1-0.5,2.2-0.6,3.4c0.9-0.8,1.6-1.7,2-2.6c0.5-1,0.7-1.9,0.7-2.7C76.2,6.1,76,5.6,75.7,5.6z M88.3,18.4
			c0.2,0,0.4,0.1,0.5,0.3c0.1,0.2,0.2,0.4,0.2,0.8c0,0.6-0.1,1.1-0.4,1.4c-0.6,0.7-1.4,1.3-2.4,1.9c-1,0.6-2.2,0.9-3.3,0.9
			c-1.6,0-2.9-0.4-3.7-1.3s-1.3-2.1-1.3-3.6c0-1.1,0.2-2,0.7-2.9c0.4-0.9,1.1-1.6,1.8-2.2c0.8-0.5,1.7-0.8,2.7-0.8
			c0.9,0,1.6,0.3,2.1,0.8c0.5,0.5,0.8,1.2,0.8,2.1c0,1.1-0.4,2-1.2,2.7c-0.8,0.8-2,1.4-3.8,1.8c0.4,0.7,1.1,1.1,2.2,1.1
			c0.7,0,1.5-0.2,2.3-0.7c0.9-0.5,1.7-1.1,2.3-1.9C87.9,18.5,88.1,18.4,88.3,18.4z M82.5,15c-0.6,0-1.1,0.3-1.4,1
			c-0.4,0.7-0.6,1.5-0.6,2.4v0c0.9-0.2,1.6-0.5,2.1-1c0.5-0.4,0.8-0.9,0.8-1.5c0-0.3-0.1-0.5-0.3-0.7C83,15.1,82.8,15,82.5,15z
			 M90.9,24.1c-0.8,0-1.4-0.2-1.8-0.6c-0.4-0.4-0.6-0.8-0.6-1.2c0-0.4,0.1-0.7,0.4-1c0.3-0.3,0.7-0.4,1.3-0.4c0.2,0,0.4,0,0.7,0.1
			l0.6,0.1c0-0.4-0.1-0.8-0.3-1.1c-0.2-0.4-0.4-0.7-0.6-1c-0.2-0.3-0.4-0.6-0.7-0.9c-0.5,0.9-1,1.7-1.4,2.3c-0.5,0.6-1,1.2-1.5,1.7
			c-0.3,0.3-0.6,0.4-0.9,0.4c-0.2,0-0.4-0.1-0.6-0.3c-0.2-0.2-0.2-0.4-0.2-0.7c0-0.3,0.1-0.6,0.3-0.9l0.3-0.4c0.8-1,1.5-1.9,1.9-2.6
			c0.3-0.4,0.6-1,0.8-1.6c0.3-0.6,0.7-1.4,1.1-2.5c0.3-0.7,0.9-1,1.8-1c0.4,0,0.7,0,0.9,0.1c0.2,0.1,0.3,0.2,0.3,0.4
			c0,0.1,0,0.2-0.1,0.4c-0.1,0.2-0.1,0.4-0.3,0.6c-0.3,0.6-0.4,1-0.4,1.4c0,0.2,0.1,0.5,0.2,0.8c0.2,0.3,0.4,0.6,0.8,1
			c0.5,0.6,0.9,1.2,1.1,1.7c0.3,0.4,0.4,0.9,0.4,1.5c0,0.6-0.2,1.3-0.5,1.8c-0.3,0.6-0.7,1-1.2,1.4C92.2,23.9,91.6,24.1,90.9,24.1z"
			/>
	</g>
</g>
</svg>
